<svg id="Calque_1" data-name="Calque 1" xmlns="http://www.w3.org/2000/svg" viewBox="0 0 348.67 399.72"><defs><style>.cls-1{fill:#bfb0cc;stroke-width:6px;}.cls-1,.cls-2,.cls-3,.cls-4,.cls-5,.cls-6,.cls-7{stroke:#231f20;stroke-linejoin:round;}.cls-1,.cls-2,.cls-3,.cls-4,.cls-5,.cls-6,.cls-7,.cls-9{stroke-linecap:round;}.cls-2{fill:#b699c8;}.cls-3{fill:#5a5461;stroke-width:3px;}.cls-4{fill:#603913;stroke-width:4px;}.cls-5{fill:#ed6192;}.cls-6{fill:#c86baa;}.cls-7,.cls-9{fill:none;}.cls-7{stroke-width:10px;}.cls-8{fill:#b598c8;}.cls-9{stroke:#b598c8;stroke-miterlimit:10;stroke-width:32px;stroke-dasharray:0 21.69;}.cls-10{fill-rule:evenodd;}</style></defs><title>LogoBigEars- 1</title><path class="cls-1" d="M173.16,43.63c-113.63-9.82-145,134.27-145,199.92,0,34.54,17.64,62.94,45.87,82.21,1.21,21.57,8.32,69,29.81,69,16,0,23.82-23.89,27.36-45.47a205.79,205.79,0,0,0,42,4.23,211.71,211.71,0,0,0,28.12-1.86c3.61,22.16,11.64,47.87,27.46,47.87,21.42,0,28.13-42.61,29.64-65.41,36.22-18.91,59.78-50.62,59.78-90.53C318.16,177.9,286.79,33.81,173.16,43.63Z" transform="translate(-4.56 -2.76)"/><path class="cls-2" d="M275.23,157c0,33.13-47,50.2-105,50.2s-105-17.07-105-50.2,47-60,105-60S275.23,123.88,275.23,157Z" transform="translate(-4.56 -2.76)"/><path class="cls-3" d="M113.29,152.12c0-8.27,4.94-15,11-15s11,6.73,11,15h4c0-10.5-6.71-19-15-19s-15,8.5-15,19Z" transform="translate(-4.56 -2.76)"/><path class="cls-3" d="M199.76,152.12c0-8.27,4.94-15,11-15s11,6.73,11,15h4c0-10.5-6.71-19-15-19s-15,8.5-15,19Z" transform="translate(-4.56 -2.76)"/><path class="cls-4" d="M166.3,177.2c10.49,0,19-8.06,19-18h-38C147.3,169.14,155.81,177.2,166.3,177.2Z" transform="translate(-4.56 -2.76)"/><ellipse class="cls-5" cx="161.73" cy="165.44" rx="15.24" ry="7.29"/><ellipse class="cls-6" cx="101.24" cy="163.44" rx="14" ry="7"/><ellipse class="cls-6" cx="221.2" cy="163.44" rx="14" ry="7"/><path class="cls-7" d="M162.3,47.72c-5.72,15.52-15.78,26.09-22.48,23.62" transform="translate(-4.56 -2.76)"/><ellipse class="cls-8" cx="161.73" cy="267.51" rx="56" ry="40"/><ellipse class="cls-9" cx="161.73" cy="267.51" rx="56" ry="40"/><g id="Forma_1" data-name="Forma 1"><path class="cls-10" d="M51.45,12.59,49.71,2.76A54.75,54.75,0,0,0,5.41,66.19l9.76-1.74A44.79,44.79,0,0,1,51.45,12.59ZM79.2,28.07a34.4,34.4,0,0,0-48.46,8.62,41.17,41.17,0,0,0-6.74,19c-1,9.31,1,15.74,2.65,21,1.53,4.83,2.61,8.32,1.12,13.22-2.73,9.12-2.49,15.48,1,22.24a19.9,19.9,0,0,0,33.38,1.18L54,107.54A10,10,0,0,1,40.18,110a9.62,9.62,0,0,1-2.67-2.77c-1.85-3.53-2.43-7-.21-14.57,2.37-7.81.54-13.51-1.19-19-1.48-4.74-3-9.64-2.25-16.92a31.1,31.1,0,0,1,5-14.32A24.85,24.85,0,1,1,79.64,70.84l8.16,5.69A34.42,34.42,0,0,0,79.2,28.07ZM66.39,46.42a12.44,12.44,0,1,0,3.07,17.31A12.45,12.45,0,0,0,66.39,46.42Z" transform="translate(-4.56 -2.76)"/></g><g id="Forma_1-2" data-name="Forma 1"><path class="cls-10" d="M304.05,73.3a12.64,12.64,0,1,0-17.29-4.49A12.64,12.64,0,0,0,304.05,73.3Zm41.48-39.08a55.39,55.39,0,0,0-34-25.62L309,18.42a45.5,45.5,0,0,1,32.67,55.4l9.75,2.53A55.39,55.39,0,0,0,345.53,34.22ZM328.11,44.46a35.36,35.36,0,1,0-60.94,35.88l8.71-5.13a25.25,25.25,0,1,1,43.53-25.62,31.68,31.68,0,0,1,4,14.9c.22,7.44-1.74,12.28-3.62,17-2.19,5.45-4.49,11.09-2.7,19.19,1.66,7.81.79,11.31-1.36,14.74a9.7,9.7,0,0,1-2.93,2.6A10.13,10.13,0,0,1,299,114.41l-8.71,5.12A20.22,20.22,0,0,0,324.15,121c4.09-6.58,4.83-13,2.78-22.45-1.12-5.08.25-8.54,2.19-13.31,2.07-5.15,4.6-11.5,4.33-21A41.84,41.84,0,0,0,328.11,44.46Z" transform="translate(-4.56 -2.76)"/></g></svg>